<?xml version="1.0" standalone="no"?><!DOCTYPE svg PUBLIC "-//W3C//DTD SVG 1.1//EN" "http://www.w3.org/Graphics/SVG/1.1/DTD/svg11.dtd"><svg t="1702810460527" class="icon" viewBox="0 0 1024 1024" version="1.1" xmlns="http://www.w3.org/2000/svg" p-id="4035" width="48" height="48" xmlns:xlink="http://www.w3.org/1999/xlink"><path d="M323.8 482.5m-20 0a20 20 0 1 0 40 0 20 20 0 1 0-40 0Z" fill="#09050F" p-id="4036"></path><path d="M831.5 381C822.1 549.4 682.7 683 512 683S201.8 549.3 192.5 381H88.2C97.9 606.6 283.9 786.7 512 786.7c228.1 0 414.1-180 423.8-405.7H831.5z" fill="#5CCE32" p-id="4037"></path><path d="M512 819.7c-59.9 0-118-11.7-172.8-34.9-52.9-22.3-100.3-54.3-141.1-95.1-40.8-40.7-72.8-88.2-95.2-141C79.6 494 67.8 435.9 67.8 376v-20H212v20c0 80.1 31.2 155.5 87.8 212.2 56.7 56.7 132 87.9 212.1 87.9s155.5-31.2 212.1-87.9c56.7-56.7 87.9-132 87.9-212.2v-20h144.2v20c-0.1 59.9-11.9 118-35.1 172.7-22.4 52.8-54.4 100.3-95.2 141-40.8 40.7-88.3 72.7-141.1 95.1-54.7 23.1-112.8 34.9-172.7 34.9zM108.3 396c2.4 47.4 12.9 93.5 31.4 137.1 20.4 48.1 49.5 91.2 86.7 128.3 37.1 37.1 80.3 66.2 128.4 86.5 49.8 21 102.7 31.7 157.2 31.7 54.5 0 107.4-10.7 157.2-31.7 48.1-20.3 91.3-49.4 128.4-86.5 37.1-37.1 66.3-80.3 86.7-128.3 18.5-43.6 29-89.7 31.4-137.1h-64.2c-2.2 38.8-11 76.5-26.2 112.4-17.1 40.5-41.6 76.9-72.9 108.1-31.2 31.2-67.6 55.7-108.1 72.9C602.4 707 557.9 716 512 716s-90.4-9-132.4-26.7c-40.5-17.1-76.9-41.6-108.1-72.9-31.2-31.2-55.7-67.6-72.9-108.1-15.1-35.8-23.9-73.5-26.2-112.4h-64.1z" fill="" p-id="4038"></path><path d="M512 650c175.1 0 317-122.2 317-273H194.9c0 150.8 142 273 317.1 273z" fill="#F25A86" p-id="4039"></path><path d="M512 716c-45.9 0-90.4-9-132.4-26.7-40.5-17.1-76.9-41.6-108.1-72.9-31.2-31.2-55.7-67.6-72.8-108.1C181 466.4 172 421.9 172 376v-20h680v20c0 45.9-9 90.4-26.7 132.4-17.1 40.5-41.6 76.9-72.9 108.1-31.2 31.2-67.6 55.7-108.1 72.9C602.4 707 557.9 716 512 716zM212.6 396c4.7 72.6 35.3 140.2 87.2 192.2 56.7 56.7 132 87.9 212.2 87.9s155.5-31.2 212.2-87.9c51.9-51.9 82.5-119.5 87.2-192.2H212.6z" fill="" p-id="4040"></path><path d="M374.8 563.5m-20 0a20 20 0 1 0 40 0 20 20 0 1 0-40 0Z" fill="#09050F" p-id="4041"></path><path d="M414.8 482.5m-20 0a20 20 0 1 0 40 0 20 20 0 1 0-40 0Z" fill="#09050F" p-id="4042"></path><path d="M323.8 482.5m-20 0a20 20 0 1 0 40 0 20 20 0 1 0-40 0Z" fill="#09050F" p-id="4043"></path><path d="M511.8 482.5m-20 0a20 20 0 1 0 40 0 20 20 0 1 0-40 0Z" fill="#09050F" p-id="4044"></path><path d="M608.8 482.5m-20 0a20 20 0 1 0 40 0 20 20 0 1 0-40 0Z" fill="#09050F" p-id="4045"></path><path d="M707.8 482.5m-20 0a20 20 0 1 0 40 0 20 20 0 1 0-40 0Z" fill="#09050F" p-id="4046"></path><path d="M468.8 563.5m-20 0a20 20 0 1 0 40 0 20 20 0 1 0-40 0Z" fill="#09050F" p-id="4047"></path><path d="M568.8 563.5m-20 0a20 20 0 1 0 40 0 20 20 0 1 0-40 0Z" fill="#09050F" p-id="4048"></path><path d="M648.8 563.5m-20 0a20 20 0 1 0 40 0 20 20 0 1 0-40 0Z" fill="#09050F" p-id="4049"></path></svg>